<svg width="28" height="19" viewBox="0 0 28 19" fill="none" xmlns="http://www.w3.org/2000/svg">
<path d="M1.5 0C0.671572 0 0 0.671573 0 1.5C0 2.32843 0.671573 3 1.5 3H26.5C27.3284 3 28 2.32843 28 1.5C28 0.671573 27.3284 0 26.5 0H1.5ZM1.5 8C0.671572 8 0 8.67157 0 9.5C0 10.3284 0.671573 11 1.5 11H26.5C27.3284 11 28 10.3284 28 9.5C28 8.67157 27.3284 8 26.5 8H1.5ZM1.5 16C0.671572 16 0 16.6716 0 17.5C0 18.3284 0.671573 19 1.5 19H26.5C27.3284 19 28 18.3284 28 17.5C28 16.6716 27.3284 16 26.5 16H1.5Z" fill="#878B90"/>
</svg>
