<svg width="27" height="25" viewBox="0 0 27 25" fill="none" xmlns="http://www.w3.org/2000/svg">
<path d="M1.88892 1.83398H6.19868L9.08622 15.4365C9.18475 15.9042 9.45461 16.3244 9.84856 16.6234C10.2425 16.9224 10.7355 17.0812 11.2411 17.0721H13.7408M25 9.00066L25.5926 6.91335H7.27612M11.5859 22.1514C11.5859 22.7125 11.1035 23.1673 10.5084 23.1673C9.91339 23.1673 9.431 22.7125 9.431 22.1514C9.431 21.5904 9.91339 21.1356 10.5084 21.1356C11.1035 21.1356 11.5859 21.5904 11.5859 22.1514ZM23.4377 22.1514C23.4377 22.7125 22.9554 23.1673 22.3603 23.1673C21.7652 23.1673 21.2829 22.7125 21.2829 22.1514C21.2829 21.5904 21.7652 21.1356 22.3603 21.1356C22.9554 21.1356 23.4377 21.5904 23.4377 22.1514Z" stroke="#FDF4F5" stroke-width="2" stroke-linecap="round" stroke-linejoin="round"/>
</svg>
