<svg width="60" height="56" viewBox="0 0 60 56" fill="none" xmlns="http://www.w3.org/2000/svg">
<g opacity="0.7">
<path d="M16.7395 21.4881H42.8869M16.7395 21.4881H1.75488M16.7395 21.4881L27.8112 51.9761M16.7395 21.4881L24.0195 9.55801L25.6879 6.48828M42.8869 21.4881H57.8715M42.8869 21.4881L31.8152 51.9761M42.8869 21.4881L35.6069 9.55801L33.89 6.48828M1.75488 21.4881C1.75488 22.7621 1.99452 24.0361 2.47075 25.2373C3.11382 26.8601 4.41815 28.3556 7.02075 31.3434L17.5373 43.4039C21.7749 48.2633 23.8922 50.6961 26.4038 51.5879C26.8668 51.7517 27.336 51.8811 27.8112 51.9761M1.75488 21.4881C1.75488 20.2141 1.99452 18.9401 2.47075 17.7359C3.11382 16.113 4.41815 14.6206 7.02075 11.6298C8.43732 10.01 9.14408 9.20008 9.96308 8.57218C11.1807 7.64418 12.5918 7.00242 14.0914 6.69455C15.1046 6.48828 16.1784 6.48828 18.329 6.48828H25.6879M27.8112 51.9761C29.1331 52.2377 30.4934 52.2377 31.8152 51.9761M25.6879 6.48828H33.89M57.8715 21.4881C57.8715 22.7621 57.6319 24.0361 57.1557 25.2373C56.5126 26.8601 55.2083 28.3556 52.6057 31.3434L42.0891 43.4039C37.8516 48.2633 35.7343 50.6961 33.2227 51.5879C32.7633 51.7504 32.293 51.8801 31.8152 51.9761M57.8715 21.4881C57.8715 20.2141 57.6319 18.9401 57.1557 17.7359C56.5126 16.113 55.2083 14.6206 52.6057 11.6298C51.1891 10.01 50.4824 9.20008 49.6634 8.57218C48.4457 7.64418 47.0347 7.00242 45.535 6.69455C44.5219 6.48828 43.448 6.48828 41.2974 6.48828H33.89" stroke="url(#paint0_linear_10094_8934)" stroke-width="3" stroke-linecap="round" stroke-linejoin="round"/>
</g>
<defs>
<linearGradient id="paint0_linear_10094_8934" x1="-9.3757" y1="25.4604" x2="64.4693" y2="8.38252" gradientUnits="userSpaceOnUse">
<stop stop-color="#1F1F1F"/>
<stop offset="0.245" stop-color="#61829A"/>
<stop offset="1" stop-color="#344756"/>
</linearGradient>
</defs>
</svg>
