<svg width="54" height="50" viewBox="0 0 54 50" fill="none" xmlns="http://www.w3.org/2000/svg">
<path d="M36.333 1.35352L36.4922 1.35742C38.13 1.44116 39.4463 2.80928 39.4463 4.4668V45.5332C39.4463 47.2441 38.0439 48.6465 36.333 48.6465H17.666C15.9552 48.6463 14.5527 47.244 14.5527 45.5332V4.4668C14.5528 2.75601 15.9553 1.35369 17.666 1.35352H36.333ZM9.58008 10.6865V13.1807H3.97949V21.8867H9.58008V24.3799H3.97949V33.0869H9.58008V35.5801H3.97949V44.2871H9.58008V46.7803H4.59961C2.88876 46.7802 1.48641 45.3778 1.48633 43.667V13.7998L1.49023 13.6406C1.57415 12.0029 2.94221 10.6866 4.59961 10.6865H9.58008ZM49.3994 10.6865C51.1102 10.6865 52.5125 12.0891 52.5127 13.7998V43.667C52.5126 45.3778 51.1103 46.7803 49.3994 46.7803H44.4199V44.2871H50.0195V35.5801H44.4199V33.0869H50.0195V24.3799H44.4199V21.8867H50.0195V13.1807H44.4199V10.6865H49.3994ZM17.0459 46.1533H36.9531V33.7139H17.0459V46.1533ZM23.2666 38.6865C23.9507 38.6867 24.5127 39.2494 24.5127 39.9336C24.5127 40.6177 23.9507 41.1805 23.2666 41.1807C22.5824 41.1807 22.0196 40.6178 22.0195 39.9336C22.0195 39.2493 22.5823 38.6865 23.2666 38.6865ZM17.0459 31.2197H36.9531V18.7803H17.0459V31.2197ZM23.2666 23.7539C23.9507 23.7541 24.5126 24.3159 24.5127 25C24.5127 25.6842 23.9507 26.2469 23.2666 26.2471C22.5824 26.2471 22.0195 25.6843 22.0195 25C22.0196 24.3158 22.5824 23.7539 23.2666 23.7539ZM17.0459 16.2871H36.9531V3.84668H17.0459V16.2871ZM23.2666 8.82031C23.9506 8.82046 24.5125 9.38245 24.5127 10.0664C24.5127 10.7506 23.9507 11.3133 23.2666 11.3135C22.5823 11.3135 22.0195 10.7507 22.0195 10.0664C22.0198 9.38236 22.5825 8.82031 23.2666 8.82031Z" fill="url(#paint0_linear_10371_3791)" stroke="url(#paint1_linear_10371_3791)"/>
<defs>
<linearGradient id="paint0_linear_10371_3791" x1="-7.93632" y1="21.0786" x2="58.659" y2="7.5295" gradientUnits="userSpaceOnUse">
<stop stop-color="#1F1F1F"/>
<stop offset="0.245" stop-color="#61829A"/>
<stop offset="1" stop-color="#344756"/>
</linearGradient>
<linearGradient id="paint1_linear_10371_3791" x1="-7.93632" y1="21.0786" x2="58.659" y2="7.5295" gradientUnits="userSpaceOnUse">
<stop stop-color="#1F1F1F"/>
<stop offset="0.245" stop-color="#61829A"/>
<stop offset="1" stop-color="#344756"/>
</linearGradient>
</defs>
</svg>
