<svg width="22" height="18" viewBox="0 0 22 18" fill="none" xmlns="http://www.w3.org/2000/svg">
<path d="M19.7097 0.154495C19.7097 0.154495 21.6523 -0.603005 21.4904 1.23664C21.4365 1.99415 20.9508 4.6454 20.573 7.5131L19.278 16.0079C19.278 16.0079 19.17 17.2524 18.1987 17.4688C17.2274 17.6852 15.7704 16.7113 15.5005 16.4949C15.2847 16.3326 11.4534 13.8977 10.1043 12.7074C9.72655 12.3827 9.29485 11.7334 10.1582 10.976L15.8244 5.56525C16.4719 4.91595 17.1194 3.40095 14.4213 5.2406L6.86655 10.3808C6.86655 10.3808 6.00315 10.9219 4.3843 10.4349L0.87671 9.35275C0.87671 9.35275 -0.418395 8.54115 1.79408 7.7295C7.19035 5.18645 13.8278 2.5893 19.7097 0.154495Z" fill="white"/>
</svg>
